<svg version="1.1" xmlns="http://www.w3.org/2000/svg" viewBox="0 0 1458.1571331566756 1206.6355962474845" width="2916.3142663133513" height="2413.271192494969">
  <!-- svg-source:excalidraw -->
  
  <defs>
    <style>
      @font-face {
        font-family: "Virgil";
        src: url("https://excalidraw.com/Virgil.woff2");
      }
      @font-face {
        font-family: "Cascadia";
        src: url("https://excalidraw.com/Cascadia.woff2");
      }
    </style>
  </defs>
  <g stroke-linecap="round" transform="translate(255.8264757146296 446.09550487864533) rotate(0 117 56)"><path d="M28 0 M28 0 C70.03 1.07, 120.37 -3.61, 206 0 M28 0 C85.97 -3.89, 142.14 -3.25, 206 0 M206 0 C221.04 1.28, 234.89 10.28, 234 28 M206 0 C224.35 0.51, 229.75 6.87, 234 28 M234 28 C235.59 41.67, 229.93 58.1, 234 84 M234 28 C232.54 42.19, 235.01 51.65, 234 84 M234 84 C230.53 101.04, 226.4 109.45, 206 112 M234 84 C237.17 98.57, 228.83 114.06, 206 112 M206 112 C141.9 114.12, 83.14 113.15, 28 112 M206 112 C141.35 112.92, 76.16 113.06, 28 112 M28 112 C12.91 108.06, 0.09 105.7, 0 84 M28 112 C7.37 109.66, -0.96 99.53, 0 84 M0 84 C-0.57 71.49, -1.56 55.69, 0 28 M0 84 C0.38 70.85, -1.48 62.14, 0 28 M0 28 C-3.77 6.42, 12.62 -2.72, 28 0 M0 28 C2.76 8.51, 9.19 3.6, 28 0" stroke="#364fc7" stroke-width="4" fill="none"></path></g><g stroke-linecap="round" transform="translate(675.8264757146296 447.09550487864533) rotate(0 117 56)"><path d="M28 0 M28 0 C88.56 -1.09, 147.4 3.59, 206 0 M28 0 C62.99 -3.72, 99.28 -4.06, 206 0 M206 0 C222.9 -2.34, 234.89 8.11, 234 28 M206 0 C226.75 -2.55, 234.38 4.77, 234 28 M234 28 C230.64 49.23, 235.7 68.39, 234 84 M234 28 C236.12 40.37, 234.86 55.02, 234 84 M234 84 C235.7 104.67, 225.54 112.87, 206 112 M234 84 C234.9 101.67, 227.64 113.42, 206 112 M206 112 C167.47 106.25, 127.32 112.74, 28 112 M206 112 C168.64 108.91, 131.95 108.98, 28 112 M28 112 C10.64 112.26, 2.93 98.84, 0 84 M28 112 C11.49 115.68, -2.86 100.93, 0 84 M0 84 C2.8 58.91, -3.58 41.39, 0 28 M0 84 C-0.14 60.08, -2.72 39.16, 0 28 M0 28 C-3.5 7.14, 11.73 3.64, 28 0 M0 28 C0.49 9.75, 5.38 -0.61, 28 0" stroke="#364fc7" stroke-width="4" fill="none"></path></g><g stroke-linecap="round" transform="translate(252.8264757146296 709.0955048786453) rotate(0 117 56)"><path d="M28 0 M28 0 C63.99 3.18, 100.8 -3.79, 206 0 M28 0 C78.17 1.09, 128.49 0.25, 206 0 M206 0 C221.16 2.34, 230.2 5.7, 234 28 M206 0 C221.71 3.65, 233.97 7.72, 234 28 M234 28 C236.96 39.01, 234.9 50.43, 234 84 M234 28 C233.53 43.46, 233.07 56.37, 234 84 M234 84 C236.66 103.51, 222.59 112.88, 206 112 M234 84 C229.59 105.59, 223.96 110.11, 206 112 M206 112 C135.4 108.78, 64.9 107.94, 28 112 M206 112 C153.33 109.89, 98.38 111.07, 28 112 M28 112 C9.96 115.12, 2.87 101.09, 0 84 M28 112 C13.7 107.67, -0.01 106.66, 0 84 M0 84 C-0.7 59.61, 3.38 43.66, 0 28 M0 84 C1.5 67.59, -1.54 47.32, 0 28 M0 28 C-2.83 12.36, 12.43 -2.99, 28 0 M0 28 C-2.58 9.76, 10.14 4.57, 28 0" stroke="#364fc7" stroke-width="4" fill="none"></path></g><g stroke-linecap="round" transform="translate(671.8264757146296 708.0955048786453) rotate(0 117 56)"><path d="M28 0 M28 0 C97.48 -3.22, 159.8 -2.11, 206 0 M28 0 C100.01 -1.91, 166.56 -1.83, 206 0 M206 0 C223.83 -2.77, 237.69 11.32, 234 28 M206 0 C228.46 0.59, 235.34 9.14, 234 28 M234 28 C230.58 44.66, 233.27 51.41, 234 84 M234 28 C235.02 43.33, 235.56 59.37, 234 84 M234 84 C230.35 105.29, 223.46 109.97, 206 112 M234 84 C229.47 102.46, 224.86 115.76, 206 112 M206 112 C146.3 112.64, 85.91 117.65, 28 112 M206 112 C137.09 111.71, 68.89 111.82, 28 112 M28 112 C11.84 113.18, 3.89 99.49, 0 84 M28 112 C8.15 113.02, -3.49 100.6, 0 84 M0 84 C-3.01 61.79, 3.5 47.53, 0 28 M0 84 C-1.12 67.65, -0.93 52.32, 0 28 M0 28 C-1.88 7.07, 11.7 1.94, 28 0 M0 28 C2.76 13.44, 5.92 -1.38, 28 0" stroke="#364fc7" stroke-width="4" fill="none"></path></g><g transform="translate(260.8264757146296 490.09550487864533) rotate(0 112 12)"><text x="112" y="17" font-family="Virgil, Segoe UI Emoji" font-size="20px" fill="#364fc7" text-anchor="middle" style="white-space: pre;" direction="ltr">Avail Node</text></g><g transform="translate(680.8264757146296 491.09550487864533) rotate(0 112 12)"><text x="112" y="17" font-family="Virgil, Segoe UI Emoji" font-size="20px" fill="#364fc7" text-anchor="middle" style="white-space: pre;" direction="ltr">Avail Node</text></g><g transform="translate(257.8264757146296 753.0955048786453) rotate(0 112 12)"><text x="112" y="17" font-family="Virgil, Segoe UI Emoji" font-size="20px" fill="#364fc7" text-anchor="middle" style="white-space: pre;" direction="ltr">Avail Node</text></g><g transform="translate(744.8264757146296 755.0955048786453) rotate(0 52 13)"><text x="0" y="18" font-family="Virgil, Segoe UI Emoji" font-size="20px" fill="#364fc7" text-anchor="start" style="white-space: pre;" direction="ltr">Avail Node</text></g><g stroke-linecap="round"><g transform="translate(489.8264757146296 506.09550487864533) rotate(0 90.00759035982196 1.3742023594770387)"><path d="M-0.83 0.01 C29.48 0.74, 150.69 3.17, 180.84 3.78 M0.94 -1.03 C31.24 -0.58, 150.6 1.62, 180.34 2.06" stroke="#364fc7" stroke-width="1" fill="none"></path></g><g transform="translate(489.8264757146296 506.09550487864533) rotate(0 90.00759035982196 1.3742023594770387)"><path d="M27.59 -8.25 C22.63 -7.57, 16.21 -6.63, -2.76 -0.03 M27.62 -9.8 C16.93 -6.68, 7.31 -2.41, -1.45 -0.25" stroke="#364fc7" stroke-width="1" fill="none"></path></g><g transform="translate(489.8264757146296 506.09550487864533) rotate(0 90.00759035982196 1.3742023594770387)"><path d="M27.16 12.27 C22.4 8.47, 16.08 4.94, -2.76 -0.03 M27.19 10.71 C16.62 6.5, 7.15 3.45, -1.45 -0.25" stroke="#364fc7" stroke-width="1" fill="none"></path></g><g transform="translate(489.8264757146296 506.09550487864533) rotate(0 90.00759035982196 1.3742023594770387)"><path d="M152 13.25 C159.51 10.08, 165.47 6.79, 178.41 2.02 M152.02 11.7 C161.58 7.6, 172.23 4.93, 179.71 1.81" stroke="#364fc7" stroke-width="1" fill="none"></path></g><g transform="translate(489.8264757146296 506.09550487864533) rotate(0 90.00759035982196 1.3742023594770387)"><path d="M152.34 -7.26 C159.67 -5.96, 165.56 -4.79, 178.41 2.02 M152.37 -8.82 C161.84 -5.59, 172.36 -0.93, 179.71 1.81" stroke="#364fc7" stroke-width="1" fill="none"></path></g></g><g stroke-linecap="round"><g transform="translate(489.8264757146296 765.5955048786453) rotate(0 89.76485454998908 1.0649849052541072)"><path d="M-1.16 -0.02 C28.85 0.61, 150.4 2.7, 180.69 3.21 M0.44 -1.08 C30.29 -0.78, 150.15 0.29, 180.1 1.2" stroke="#364fc7" stroke-width="1" fill="none"></path></g><g transform="translate(489.8264757146296 765.5955048786453) rotate(0 89.76485454998908 1.0649849052541072)"><path d="M27.18 -8.63 C17.48 -5.64, 7.18 -3.44, -2.18 -1.25 M26.96 -10.5 C19.24 -7.07, 10.28 -4.18, -1.34 0.47" stroke="#364fc7" stroke-width="1" fill="none"></path></g><g transform="translate(489.8264757146296 765.5955048786453) rotate(0 89.76485454998908 1.0649849052541072)"><path d="M26.81 11.89 C17.34 7.62, 7.17 2.56, -2.18 -1.25 M26.59 10.01 C18.93 7.28, 10.09 3.99, -1.34 0.47" stroke="#364fc7" stroke-width="1" fill="none"></path></g><g transform="translate(489.8264757146296 765.5955048786453) rotate(0 89.76485454998908 1.0649849052541072)"><path d="M151.69 12.09 C162.16 8.73, 171.94 4.03, 179.07 -0.03 M151.47 10.22 C160.78 8.14, 168.89 5.16, 179.91 1.7" stroke="#364fc7" stroke-width="1" fill="none"></path></g><g transform="translate(489.8264757146296 765.5955048786453) rotate(0 89.76485454998908 1.0649849052541072)"><path d="M152.06 -8.43 C162.3 -4.53, 171.95 -1.97, 179.07 -0.03 M151.84 -10.3 C161.08 -6.2, 169.08 -3.01, 179.91 1.7" stroke="#364fc7" stroke-width="1" fill="none"></path></g></g><g stroke-linecap="round"><g transform="translate(380.8264757146296 561.5955048786453) rotate(0 -0.3736052688211089 73.80429238797169)"><path d="M1.08 -0.28 C0.79 24.53, -1.65 124.43, -1.82 149.08 M0.18 -1.47 C0.29 23, 0.51 122.49, 0.46 147.52" stroke="#364fc7" stroke-width="1" fill="none"></path></g><g transform="translate(380.8264757146296 561.5955048786453) rotate(0 -0.3736052688211089 73.80429238797169)"><path d="M10.3 26.74 C9.7 21.77, 4.44 11.83, 2.1 0.59 M10.41 27.58 C7.92 19.54, 5.26 11.03, 1 0.68" stroke="#364fc7" stroke-width="1" fill="none"></path></g><g transform="translate(380.8264757146296 561.5955048786453) rotate(0 -0.3736052688211089 73.80429238797169)"><path d="M-10.22 26.33 C-4.89 21.29, -4.23 11.47, 2.1 0.59 M-10.11 27.16 C-6.19 19.21, -2.45 10.83, 1 0.68" stroke="#364fc7" stroke-width="1" fill="none"></path></g><g transform="translate(380.8264757146296 561.5955048786453) rotate(0 -0.3736052688211089 73.80429238797169)"><path d="M-10.28 117.96 C-4.99 129.15, -4.5 135.54, 1.49 148.39 M-10.17 118.8 C-5.94 128.37, -2.38 137.51, 0.38 148.48" stroke="#364fc7" stroke-width="1" fill="none"></path></g><g transform="translate(380.8264757146296 561.5955048786453) rotate(0 -0.3736052688211089 73.80429238797169)"><path d="M10.24 117.96 C9.6 129.32, 4.18 135.72, 1.49 148.39 M10.35 118.79 C8.18 128.41, 5.34 137.55, 0.38 148.48" stroke="#364fc7" stroke-width="1" fill="none"></path></g></g><g stroke-linecap="round"><g transform="translate(798.3264757146294 563.0955048786453) rotate(0 -0.3059439117092779 71.22397811375558)"><path d="M0.81 -0.82 C0.61 23.06, -0.2 119.28, -0.64 143.27 M-0.23 1.36 C-0.6 24.86, -1.54 117.44, -1.41 141.29" stroke="#364fc7" stroke-width="1" fill="none"></path></g><g transform="translate(798.3264757146294 563.0955048786453) rotate(0 -0.3059439117092779 71.22397811375558)"><path d="M9.44 28.06 C7.81 16.34, 4.05 6.54, -0.02 -0.46 M10.02 27.32 C7.84 17.35, 3.76 6.97, 1.37 -1.76" stroke="#364fc7" stroke-width="1" fill="none"></path></g><g transform="translate(798.3264757146294 563.0955048786453) rotate(0 -0.3059439117092779 71.22397811375558)"><path d="M-11.08 27.87 C-5.63 16.08, -2.31 6.34, -0.02 -0.46 M-10.5 27.13 C-5.04 17.33, -1.47 7.03, 1.37 -1.76" stroke="#364fc7" stroke-width="1" fill="none"></path></g><g transform="translate(798.3264757146294 563.0955048786453) rotate(0 -0.3059439117092779 71.22397811375558)"><path d="M-12.94 113.65 C-7.62 121.3, -4.41 130.99, -2.23 141.65 M-12.36 112.92 C-7.04 124.1, -3.61 134.77, -0.84 140.35" stroke="#364fc7" stroke-width="1" fill="none"></path></g><g transform="translate(798.3264757146294 563.0955048786453) rotate(0 -0.3059439117092779 71.22397811375558)"><path d="M7.58 113.72 C5.83 121.48, 1.95 131.15, -2.23 141.65 M8.17 112.99 C5.84 124.04, 1.62 134.69, -0.84 140.35" stroke="#364fc7" stroke-width="1" fill="none"></path></g></g><g transform="translate(504.8809774160453 614.3992404730128) rotate(0 94 18)"><text x="0" y="25" font-family="Virgil, Segoe UI Emoji" font-size="28px" fill="#364fc7" text-anchor="start" style="white-space: pre;" direction="ltr">Avail Network</text></g><g stroke-linecap="round" transform="translate(55.38681486974983 131.4954033577108) rotate(0 29 17.86527796055725)"><path d="M35.4 1.28 C41.21 1.86, 48.17 4.31, 51.93 7.35 C55.69 10.39, 58.4 15.74, 57.94 19.53 C57.49 23.31, 53.6 27.35, 49.2 30.07 C44.79 32.78, 37.43 35.41, 31.5 35.83 C25.56 36.25, 18.69 34.72, 13.59 32.57 C8.49 30.42, 2.84 26.75, 0.91 22.93 C-1.02 19.11, -0.46 13.09, 2 9.64 C4.46 6.18, 9.75 3.75, 15.66 2.18 C21.56 0.61, 33.52 0.38, 37.42 0.23 C41.32 0.09, 39.03 1, 39.06 1.32 M19.55 0.07 C25.14 -1.61, 34.01 -0.74, 39.73 0.65 C45.44 2.03, 50.89 5.18, 53.83 8.39 C56.77 11.6, 58.21 15.84, 57.37 19.89 C56.53 23.93, 53.6 29.84, 48.79 32.67 C43.98 35.5, 34.74 36.99, 28.51 36.87 C22.28 36.75, 16.15 34.83, 11.4 31.97 C6.65 29.11, 1.2 23.6, 0.01 19.7 C-1.18 15.81, 0.99 11.77, 4.24 8.58 C7.48 5.39, 16.92 1.97, 19.46 0.55 C22.01 -0.88, 19.5 -0.35, 19.5 0.03" stroke="#a61e4d" stroke-width="1" fill="none"></path></g><g transform="translate(60.38681486974983 137.36068131826806) rotate(0 24 12)"><text x="24" y="17" font-family="Virgil, Segoe UI Emoji" font-size="20px" fill="#a61e4d" text-anchor="middle" style="white-space: pre;" direction="ltr">LC</text></g><g stroke-linecap="round" transform="translate(669.5368214498103 125.95100674926204) rotate(0 29 17.86527796055725)"><path d="M35.27 -0.42 C41.19 0.08, 48.66 4.07, 52.6 7.19 C56.53 10.31, 59.29 14.37, 58.89 18.29 C58.49 22.22, 54.75 27.68, 50.2 30.73 C45.66 33.78, 37.76 36.33, 31.62 36.59 C25.49 36.84, 18.35 34.64, 13.41 32.28 C8.46 29.92, 3.95 25.99, 1.94 22.43 C-0.06 18.87, -0.94 14.43, 1.38 10.93 C3.7 7.43, 9.65 3.1, 15.86 1.43 C22.06 -0.25, 34.29 0.7, 38.6 0.87 C42.91 1.03, 42 1.99, 41.71 2.41 M25.58 0.84 C31.14 0.03, 38.16 1.27, 43.11 3.03 C48.05 4.78, 52.89 7.77, 55.27 11.39 C57.64 15.01, 59.23 20.99, 57.35 24.76 C55.46 28.52, 49.87 32.04, 43.97 34 C38.07 35.95, 28.13 37.09, 21.95 36.48 C15.76 35.87, 10.72 33.48, 6.84 30.32 C2.96 27.15, -1.47 21.43, -1.34 17.5 C-1.2 13.57, 3.44 9.87, 7.65 6.74 C11.86 3.6, 20.82 -0.28, 23.93 -1.31 C27.05 -2.34, 26.06 0.15, 26.34 0.55" stroke="#a61e4d" stroke-width="1" fill="none"></path></g><g transform="translate(674.5368214498103 131.81628470981929) rotate(0 24 12)"><text x="24" y="17" font-family="Virgil, Segoe UI Emoji" font-size="20px" fill="#a61e4d" text-anchor="middle" style="white-space: pre;" direction="ltr">LC</text></g><g stroke-linecap="round" transform="translate(898.7052145990269 130.87935929010558) rotate(0 29 17.86527796055725)"><path d="M38.55 1.18 C44.44 2.18, 50.46 5.93, 53.69 9.08 C56.91 12.23, 58.79 16.3, 57.89 20.1 C56.98 23.9, 52.98 29.23, 48.24 31.87 C43.5 34.5, 35.55 35.94, 29.44 35.93 C23.34 35.91, 16.33 34.01, 11.61 31.78 C6.88 29.54, 2.33 26.2, 1.09 22.52 C-0.14 18.84, 1.43 13.17, 4.21 9.69 C6.98 6.22, 11.54 3.01, 17.74 1.67 C23.95 0.34, 36.78 1.5, 41.44 1.69 C46.1 1.87, 45.92 2.6, 45.69 2.79 M27.57 1.49 C33.85 1.43, 43.96 1.82, 48.98 4.01 C53.99 6.2, 56.56 10.75, 57.67 14.63 C58.77 18.51, 58.49 23.82, 55.61 27.29 C52.72 30.76, 46.23 34.25, 40.37 35.45 C34.5 36.64, 26.26 35.77, 20.41 34.46 C14.55 33.15, 8.79 31.04, 5.22 27.58 C1.65 24.13, -2.1 17.49, -1.02 13.74 C0.07 9.99, 6.63 7.35, 11.71 5.08 C16.78 2.81, 26.35 0.98, 29.44 0.12 C32.52 -0.75, 30.15 -0.22, 30.23 -0.1" stroke="#a61e4d" stroke-width="1" fill="none"></path></g><g transform="translate(903.7052145990269 136.74463725066283) rotate(0 24 12)"><text x="24" y="17" font-family="Virgil, Segoe UI Emoji" font-size="20px" fill="#a61e4d" text-anchor="middle" style="white-space: pre;" direction="ltr">LC</text></g><g stroke-linecap="round" transform="translate(808.7627807286358 240.5352033238707) rotate(0 29 17.86527796055725)"><path d="M30.67 -0.18 C36.59 -0.3, 45.24 1.57, 49.8 4.31 C54.36 7.06, 57.51 12.33, 58.04 16.32 C58.56 20.3, 56.26 24.97, 52.93 28.23 C49.59 31.49, 43.93 34.92, 38.03 35.86 C32.12 36.81, 23.29 35.65, 17.51 33.89 C11.73 32.13, 6.16 28.61, 3.35 25.3 C0.54 21.99, -0.65 17.74, 0.65 14.01 C1.94 10.28, 5.13 5.13, 11.1 2.91 C17.07 0.69, 31.3 0.9, 36.47 0.7 C41.63 0.5, 42.28 1.25, 42.11 1.7 M42.28 3.43 C47.8 5.1, 53.79 8.83, 56.33 12.32 C58.86 15.82, 59.48 20.76, 57.5 24.41 C55.51 28.05, 49.66 32.56, 44.41 34.18 C39.16 35.81, 32.3 34.61, 25.99 34.15 C19.68 33.68, 10.74 33.89, 6.56 31.41 C2.37 28.92, 0.96 23.08, 0.88 19.25 C0.8 15.41, 2.52 11.34, 6.07 8.37 C9.63 5.41, 16.32 2.51, 22.2 1.45 C28.08 0.39, 38.08 1.86, 41.34 2 C44.61 2.15, 41.69 1.98, 41.8 2.31" stroke="#a61e4d" stroke-width="1" fill="none"></path></g><g transform="translate(813.7627807286358 246.40048128442794) rotate(0 24 12)"><text x="24" y="17" font-family="Virgil, Segoe UI Emoji" font-size="20px" fill="#a61e4d" text-anchor="middle" style="white-space: pre;" direction="ltr">LC</text></g><g stroke-linecap="round" transform="translate(354.12225883583415 251.6239965407683) rotate(0 29 17.86527796055725)"><path d="M40.08 1.06 C45.88 2.3, 51.92 6.84, 54.95 10.26 C57.98 13.69, 59.63 17.97, 58.26 21.63 C56.88 25.29, 51.78 29.9, 46.69 32.22 C41.6 34.54, 33.81 35.83, 27.72 35.54 C21.63 35.25, 14.79 33.1, 10.13 30.49 C5.47 27.87, 0.73 23.6, -0.24 19.85 C-1.21 16.09, 1.08 11.26, 4.29 7.96 C7.5 4.66, 12.5 0.87, 19.04 0.05 C25.57 -0.78, 39.22 2.45, 43.52 3.02 C47.82 3.58, 45.22 3.18, 44.82 3.44 M35.56 0.09 C41.42 0.52, 49.19 4.44, 52.69 7.25 C56.19 10.07, 56.6 13.11, 56.56 16.96 C56.52 20.81, 56.17 27.24, 52.45 30.35 C48.74 33.46, 40.43 35.2, 34.28 35.61 C28.14 36.01, 20.85 34.91, 15.58 32.78 C10.31 30.64, 4.94 26.38, 2.66 22.8 C0.37 19.22, -0.16 14.55, 1.86 11.3 C3.88 8.05, 9.29 4.89, 14.77 3.31 C20.26 1.73, 31.62 2.42, 34.75 1.8 C37.89 1.18, 33.88 -0.53, 33.57 -0.4" stroke="#a61e4d" stroke-width="1" fill="none"></path></g><g transform="translate(359.12225883583415 257.48927450132555) rotate(0 24 12)"><text x="24" y="17" font-family="Virgil, Segoe UI Emoji" font-size="20px" fill="#a61e4d" text-anchor="middle" style="white-space: pre;" direction="ltr">LC</text></g><g stroke-linecap="round" transform="translate(582.0585638498403 238.07102705344903) rotate(0 29 17.86527796055725)"><path d="M35.58 0.11 C41.33 0.48, 48.75 3.42, 52.45 6.58 C56.15 9.75, 58.27 15.3, 57.78 19.11 C57.3 22.92, 53.85 26.7, 49.55 29.44 C45.26 32.19, 38.15 35.14, 32.02 35.58 C25.89 36.02, 18.02 33.99, 12.76 32.08 C7.5 30.18, 2.03 27.69, 0.43 24.15 C-1.16 20.62, 0.65 14.58, 3.21 10.88 C5.78 7.17, 9.66 3.5, 15.82 1.94 C21.97 0.38, 35.56 1.33, 40.16 1.51 C44.76 1.69, 43.62 2.83, 43.43 3.02 M39.81 3.02 C45.37 4.64, 53.07 7.23, 55.97 10.67 C58.87 14.1, 58.97 19.83, 57.22 23.62 C55.48 27.4, 50.71 31.37, 45.48 33.38 C40.25 35.39, 32.02 36.14, 25.86 35.68 C19.69 35.23, 12.61 33.26, 8.5 30.66 C4.38 28.05, 1.49 23.98, 1.16 20.06 C0.83 16.14, 3.37 10.52, 6.52 7.14 C9.68 3.75, 14.26 0.49, 20.07 -0.26 C25.89 -1, 37.74 2.4, 41.42 2.68 C45.09 2.96, 42.67 1.33, 42.15 1.45" stroke="#a61e4d" stroke-width="1" fill="none"></path></g><g transform="translate(587.0585638498403 243.93630501400628) rotate(0 24 12)"><text x="24" y="17" font-family="Virgil, Segoe UI Emoji" font-size="20px" fill="#a61e4d" text-anchor="middle" style="white-space: pre;" direction="ltr">LC</text></g><g stroke-linecap="round" transform="translate(509.3653638724005 64.34659998872002) rotate(0 29 17.86527796055725)"><path d="M34.53 -0.45 C40.4 -0.11, 46.83 2.83, 50.74 5.81 C54.65 8.78, 58.06 13.6, 57.99 17.39 C57.92 21.18, 54.18 25.36, 50.33 28.54 C46.49 31.71, 40.92 35.62, 34.91 36.43 C28.91 37.24, 19.86 35.32, 14.32 33.39 C8.78 31.46, 3.7 28.33, 1.67 24.86 C-0.36 21.39, -0.09 16.19, 2.16 12.57 C4.41 8.96, 9.32 4.99, 15.15 3.16 C20.98 1.33, 32.91 1.99, 37.15 1.59 C41.39 1.2, 40.83 0.49, 40.6 0.8 M38.45 0.25 C44.3 0.86, 50.89 3.72, 54.12 6.94 C57.35 10.15, 58.67 15.39, 57.83 19.53 C56.99 23.67, 53.48 28.83, 49.06 31.78 C44.64 34.72, 37.63 37.28, 31.32 37.19 C25 37.09, 16.43 33.65, 11.19 31.22 C5.96 28.8, 1.09 25.92, -0.09 22.63 C-1.28 19.33, 1.26 15.21, 4.09 11.45 C6.91 7.69, 11.32 2.09, 16.85 0.08 C22.38 -1.94, 34.11 -0.65, 37.27 -0.64 C40.42 -0.63, 35.86 -0.28, 35.8 0.12" stroke="#a61e4d" stroke-width="1" fill="none"></path></g><g transform="translate(514.3653638724005 70.21187794927727) rotate(0 24 12)"><text x="24" y="17" font-family="Virgil, Segoe UI Emoji" font-size="20px" fill="#a61e4d" text-anchor="middle" style="white-space: pre;" direction="ltr">LC</text></g><g stroke-linecap="round" transform="translate(1021.9140281201119 228.2143219717616) rotate(0 29 17.86527796055725)"><path d="M42.72 1.33 C48 3.02, 52.83 8.07, 55.29 11.61 C57.75 15.16, 59.2 19.05, 57.49 22.61 C55.79 26.18, 50.36 30.86, 45.07 32.98 C39.78 35.1, 31.86 35.83, 25.75 35.34 C19.64 34.84, 12.76 32.86, 8.42 30.02 C4.08 27.19, 0.12 22.19, -0.28 18.34 C-0.67 14.49, 2.22 9.98, 6.06 6.92 C9.91 3.85, 16.2 0.59, 22.81 -0.06 C29.43 -0.7, 41.73 2.46, 45.77 3.04 C49.82 3.62, 47.55 3.22, 47.08 3.41 M38.64 2.4 C44.42 3.24, 52.17 4.54, 55.39 7.5 C58.61 10.46, 59.39 16.36, 57.96 20.17 C56.53 23.99, 51.63 27.77, 46.84 30.39 C42.04 33.01, 35.04 35.57, 29.2 35.89 C23.35 36.21, 16.77 34.73, 11.77 32.3 C6.78 29.87, 0.68 25.1, -0.77 21.31 C-2.22 17.52, -0.04 12.84, 3.09 9.56 C6.22 6.27, 12.11 3.18, 18.01 1.59 C23.91 -0.01, 35.29 0.17, 38.48 -0.03 C41.66 -0.23, 37.43 0.13, 37.13 0.38" stroke="#a61e4d" stroke-width="1" fill="none"></path></g><g transform="translate(1026.9140281201119 234.07959993231884) rotate(0 24 12)"><text x="24" y="17" font-family="Virgil, Segoe UI Emoji" font-size="20px" fill="#a61e4d" text-anchor="middle" style="white-space: pre;" direction="ltr">LC</text></g><g stroke-linecap="round" transform="translate(160.6844216077317 240.53520332387006) rotate(0 29 17.86527796055725)"><path d="M19.93 1.42 C25.39 0.13, 34.67 0.64, 40.46 2.21 C46.25 3.77, 51.87 7.54, 54.69 10.79 C57.52 14.04, 58.83 18.13, 57.41 21.69 C55.98 25.24, 51.16 29.82, 46.15 32.13 C41.14 34.45, 33.6 35.64, 27.35 35.58 C21.1 35.52, 13.15 34.31, 8.65 31.78 C4.15 29.25, 1.1 24.4, 0.33 20.4 C-0.43 16.4, 0.39 10.99, 4.04 7.78 C7.69 4.57, 18.77 2.38, 22.23 1.15 C25.7 -0.09, 24.71 0.06, 24.85 0.39 M41.21 0.89 C46.7 2.24, 51.86 6.81, 54.49 10.69 C57.12 14.56, 58.45 20.68, 56.99 24.15 C55.53 27.61, 50.9 29.69, 45.73 31.49 C40.57 33.29, 32.21 35.29, 26 34.93 C19.8 34.57, 12.77 32.02, 8.53 29.32 C4.28 26.63, 1.18 22.67, 0.52 18.76 C-0.14 14.85, 1.14 9.1, 4.58 5.88 C8.02 2.65, 15.16 0.03, 21.17 -0.61 C27.18 -1.25, 37.48 1.68, 40.64 2.02 C43.81 2.36, 40.06 1.39, 40.17 1.43" stroke="#a61e4d" stroke-width="1" fill="none"></path></g><g transform="translate(165.6844216077317 246.40048128442731) rotate(0 24 12)"><text x="24" y="17" font-family="Virgil, Segoe UI Emoji" font-size="20px" fill="#a61e4d" text-anchor="middle" style="white-space: pre;" direction="ltr">LC</text></g><g stroke-linecap="round" transform="translate(280.19697072318377 88.98836269293622) rotate(0 29 17.86527796055725)"><path d="M20.87 0.64 C26.41 -0.57, 34.35 0.72, 40.1 2.11 C45.86 3.5, 52.56 5.71, 55.37 8.98 C58.19 12.25, 58.36 17.92, 57 21.73 C55.64 25.53, 52.16 29.41, 47.24 31.81 C42.32 34.21, 33.76 36.41, 27.49 36.14 C21.21 35.87, 14.11 32.78, 9.59 30.19 C5.06 27.61, 1.08 24.15, 0.33 20.63 C-0.42 17.12, 1.29 12.67, 5.11 9.13 C8.93 5.59, 19.94 0.82, 23.24 -0.61 C26.55 -2.03, 25.02 0.08, 24.95 0.58 M23.56 0.75 C29.6 -0.13, 38.6 0.28, 44.23 2.42 C49.87 4.56, 55.22 9.79, 57.38 13.57 C59.54 17.36, 59.76 21.81, 57.19 25.14 C54.62 28.47, 47.44 31.84, 41.95 33.53 C36.45 35.21, 30.09 36.1, 24.21 35.27 C18.34 34.43, 10.7 31.49, 6.71 28.51 C2.72 25.54, 0.07 20.96, 0.29 17.42 C0.51 13.88, 3.89 10.19, 8.01 7.25 C12.12 4.32, 22.42 0.96, 24.98 -0.18 C27.54 -1.31, 23.22 -0.03, 23.36 0.44" stroke="#a61e4d" stroke-width="1" fill="none"></path></g><g transform="translate(285.1969707231839 94.85364065349347) rotate(0 24 12)"><text x="24" y="17" font-family="Virgil, Segoe UI Emoji" font-size="20px" fill="#a61e4d" text-anchor="middle" style="white-space: pre;" direction="ltr">LC</text></g><g stroke-linecap="round"><g transform="translate(113.29495722465785 143.81628470981713) rotate(0 84.76046311266109 -16.638137183343687)"><path d="M-0.49 0.75 C27.86 -5, 141.59 -28.54, 170.01 -34.03 M1.45 0.1 C29.65 -5.56, 141.09 -27.22, 169.05 -32.89" stroke="#a61e4d" stroke-width="1" fill="none"></path></g></g><g stroke-linecap="round"><g transform="translate(208.16574363589288 243.61542366189553) rotate(0 48.2394573048567 -58.67267956307847)"><path d="M0.21 0.39 C16.47 -19.42, 81.58 -98.25, 97.62 -117.74 M-1.14 -0.45 C14.98 -19.61, 80.16 -96.87, 96.82 -116.56" stroke="#a61e4d" stroke-width="1" fill="none"></path></g></g><g stroke-linecap="round"><g transform="translate(98.50989960212772 167.22595927882315) rotate(0 38.5179637001749 40.78706196111781)"><path d="M0.48 0.68 C12.9 14.1, 62.77 66.85, 75.51 80.48 M-0.72 0 C11.98 13.54, 64.9 68.13, 77.76 81.58" stroke="#a61e4d" stroke-width="1" fill="none"></path></g></g><g stroke-linecap="round"><g transform="translate(342.46335037387485 100.69319997743759) rotate(0 83.39239843119259 -7.121340576354669)"><path d="M-0.85 0.52 C26.94 -2.03, 139.66 -12.17, 167.63 -14.76 M0.91 -0.25 C28.46 -2.64, 139.22 -10.95, 166.72 -13.22" stroke="#a61e4d" stroke-width="1" fill="none"></path></g></g><g stroke-linecap="round"><g transform="translate(399.13940459357366 252.24004060837143) rotate(0 66.13414704800846 -77.58558978195131)"><path d="M0.24 0.52 C22.51 -25.22, 111.15 -127.8, 133.37 -153.72 M-1.1 -0.26 C21.07 -26.43, 110.23 -130.03, 132.58 -155.69" stroke="#a61e4d" stroke-width="1" fill="none"></path></g></g><g stroke-linecap="round"><g transform="translate(556.8466859005617 98.22902370701593) rotate(0 23.69426460288554 71.34318694627646)"><path d="M1.12 0.66 C9.1 24.17, 39.72 117.92, 47.14 141.36 M0.24 -0.04 C8.16 23.61, 38.42 118.98, 46.37 142.73" stroke="#a61e4d" stroke-width="1" fill="none"></path></g></g><g stroke-linecap="round"><g transform="translate(412.69237408089293 264.56092196047985) rotate(0 131.56643048053638 -58.75310242420748)"><path d="M0.6 -0.46 C44.02 -20.14, 217.81 -97.61, 261.47 -117.04 M-0.54 -1.75 C43.17 -20.71, 219.94 -96.5, 263.68 -115.5" stroke="#a61e4d" stroke-width="1" fill="none"></path></g></g><g stroke-linecap="round"><g transform="translate(726.8748485596582 156.1371660619256) rotate(0 43.559536622121755 51.16478328773013)"><path d="M0.99 0.78 C15.6 17.83, 72.94 85.64, 87.07 102.19 M0.05 0.14 C14.63 16.9, 72.44 83.88, 86.55 100.67" stroke="#a61e4d" stroke-width="1" fill="none"></path></g></g><g stroke-linecap="round"><g transform="translate(728.1069366948691 141.35210843939547) rotate(0 86.83440570701242 4.4739801180597105)"><path d="M-0.31 -0.56 C28.19 0.92, 143 7.82, 171.69 9.51 M1.73 1.76 C30.55 2.86, 145.82 6.85, 173.97 7.85" stroke="#a61e4d" stroke-width="1" fill="none"></path></g></g><g stroke-linecap="round"><g transform="translate(953.5790654384534 159.83343046755812) rotate(0 39.671352077267784 34.566641237797604)"><path d="M0.62 -0.46 C13.76 11.54, 66.66 59.28, 79.85 70.87 M-0.51 -1.74 C12.46 10.01, 66.1 57.17, 79.43 69.09" stroke="#a61e4d" stroke-width="1" fill="none"></path></g></g><g stroke-linecap="round"><g transform="translate(868.5649841089053 257.1683931492148) rotate(0 77.44871293072879 -5.052039308571445)"><path d="M-0.54 -0.34 C25.45 -2.03, 129.62 -8.38, 155.43 -9.76 M1.38 -1.56 C27.28 -3.18, 128.68 -7.86, 154.58 -8.82" stroke="#a61e4d" stroke-width="1" fill="none"></path></g></g><g stroke-linecap="round"><g transform="translate(565.4713028470376 74.8193491380099) rotate(0 172.6075290262624 30.870143019954007)"><path d="M0.88 -0.39 C58.13 10.29, 285.71 52.76, 343.01 63.38 M-0.12 -1.64 C57.56 8.74, 287.92 51.07, 345.34 61.55" stroke="#a61e4d" stroke-width="1" fill="none"></path></g></g><g stroke-linecap="round"><g transform="translate(640.6286790948991 257.1683931492148) rotate(0 87.0837293179087 4.037605096125198)"><path d="M-0.25 -1.13 C28.93 0.49, 145.19 7.41, 174.42 9.2 M1.82 0.89 C30.85 2.2, 144.42 6.24, 173.18 7.39" stroke="#a61e4d" stroke-width="1" fill="none"></path></g></g><g stroke-linecap="round"><g transform="translate(325.21411648092305 122.87078641123281) rotate(0 22.087884482872596 66.84515016764654)"><path d="M-1.09 -0.6 C6.51 21.39, 37.8 110.6, 45.26 132.86 M0.55 1.7 C8.1 23.8, 37.78 112.2, 44.79 134.29" stroke="#a61e4d" stroke-width="1" fill="none"></path></g></g><g stroke-linecap="round"><g transform="translate(380.65808256541106 443.2137015660522) rotate(0 0.16126922373769048 -77.27468437459613)"><path d="M0.55 -1.1 C0.69 -26.94, 1.07 -129.97, 0.89 -155.48 M-0.62 0.93 C-0.57 -24.68, 0.57 -127.92, 0.41 -154.07" stroke="#a61e4d" stroke-width="1" fill="none"></path></g><g transform="translate(380.65808256541106 443.2137015660522) rotate(0 0.16126922373769048 -77.27468437459613)"><path d="M8.74 -124.36 C7.15 -135.34, 6.18 -144.4, 1.79 -155.91 M11.36 -125.27 C7.67 -136.71, 3.9 -147.3, 1.05 -154.55" stroke="#a61e4d" stroke-width="1" fill="none"></path></g><g transform="translate(380.65808256541106 443.2137015660522) rotate(0 0.16126922373769048 -77.27468437459613)"><path d="M-11.79 -124.43 C-7.05 -135.49, -1.7 -144.53, 1.79 -155.91 M-9.16 -125.35 C-5.31 -136.81, -1.54 -147.37, 1.05 -154.55" stroke="#a61e4d" stroke-width="1" fill="none"></path></g></g><g transform="translate(394.21105205273034 346.7354439660823) rotate(0 33.5 13)"><text x="0" y="18" font-family="Virgil, Segoe UI Emoji" font-size="20px" fill="#a61e4d" text-anchor="start" style="white-space: pre;" direction="ltr">Header</text></g><g stroke-linecap="round"><g transform="translate(834.0665163230017 279.34597958301) rotate(0 -31.291011324325837 80.36752675839543)"><path d="M-0.73 0.03 C-11.29 26.78, -53.4 133.74, -63.67 160.61 M1.09 -1 C-9.06 25.87, -50.74 134.49, -61.39 161.73" stroke="#a61e4d" stroke-width="1" fill="none"></path></g><g transform="translate(834.0665163230017 279.34597958301) rotate(0 -31.291011324325837 80.36752675839543)"><path d="M-60.74 130.35 C-62.24 140.73, -61.35 148.03, -61.77 160.57 M-60.3 131.43 C-60.81 138.93, -62 145.6, -61.17 162.06" stroke="#a61e4d" stroke-width="1" fill="none"></path></g><g transform="translate(834.0665163230017 279.34597958301) rotate(0 -31.291011324325837 80.36752675839543)"><path d="M-41.6 137.75 C-48.33 146, -52.65 151.28, -61.77 160.57 M-41.16 138.83 C-46.21 144.47, -52.02 149.36, -61.17 162.06" stroke="#a61e4d" stroke-width="1" fill="none"></path></g></g><g transform="translate(709.6256146667065 350.4317083717148) rotate(0 39 13)"><text x="0" y="18" font-family="Virgil, Segoe UI Emoji" font-size="20px" fill="#a61e4d" text-anchor="start" style="white-space: pre;" direction="ltr">Sampling</text></g><g stroke-linecap="round"><g transform="translate(864.8687197032727 445.6778778364739) rotate(0 -7.1933621059221196 -84.00914696542866)"><path d="M0.66 0.5 C-1.72 -27.26, -11.68 -138.86, -13.91 -166.8 M-0.45 -0.28 C-3.05 -28.36, -12.94 -140.36, -15.05 -168.52" stroke="#a61e4d" stroke-width="1" fill="none"></path></g><g transform="translate(864.8687197032727 445.6778778364739) rotate(0 -7.1933621059221196 -84.00914696542866)"><path d="M-1.66 -141.87 C-5.33 -148.87, -10.03 -160.06, -17 -169.31 M-1.79 -142.13 C-5.31 -146.49, -6.98 -153.13, -14.15 -169.14" stroke="#a61e4d" stroke-width="1" fill="none"></path></g><g transform="translate(864.8687197032727 445.6778778364739) rotate(0 -7.1933621059221196 -84.00914696542866)"><path d="M-22.12 -140.18 C-19 -147.85, -16.92 -159.61, -17 -169.31 M-22.25 -140.44 C-21.27 -145.02, -18.47 -152.03, -14.15 -169.14" stroke="#a61e4d" stroke-width="1" fill="none"></path></g></g><g transform="translate(872.2612485145376 354.12797277734734) rotate(0 33 13)"><text x="0" y="18" font-family="Virgil, Segoe UI Emoji" font-size="20px" fill="#a61e4d" text-anchor="start" style="white-space: pre;" direction="ltr">Proofs</text></g><g stroke-linecap="round"><g transform="translate(218.02244871757964 257.1683931492148) rotate(0 150.1463507587985 -81.24224845094915)"><path d="M0.32 0.33 C50.54 -26.97, 251.39 -135.46, 301.26 -162.82 M-0.96 -0.54 C49.15 -27.73, 250.17 -134.28, 300.64 -161.37" stroke="#a61e4d" stroke-width="1" fill="none"></path></g></g><g stroke-linecap="round" transform="translate(132.346394497881 932.9687353123633) rotate(0 29 17.86527796055725)"><path d="M39.63 1.98 C45.34 2.87, 52.46 5.61, 55.35 8.83 C58.23 12.04, 58.23 17.48, 56.93 21.28 C55.64 25.08, 52.48 29.38, 47.57 31.64 C42.66 33.91, 33.82 35.06, 27.46 34.87 C21.11 34.69, 14.08 32.97, 9.46 30.54 C4.83 28.12, 0.7 23.97, -0.28 20.32 C-1.26 16.67, 0.15 11.86, 3.58 8.66 C7 5.46, 13.86 2.23, 20.26 1.12 C26.67 0.02, 38.08 1.57, 42.02 2.03 C45.96 2.48, 43.96 3.64, 43.9 3.86 M17.75 -0.13 C23.28 -1.66, 32.76 0.4, 38.71 1.92 C44.66 3.44, 50.36 5.94, 53.45 8.97 C56.53 11.99, 58.32 16.28, 57.23 20.07 C56.15 23.87, 51.67 29.37, 46.92 31.74 C42.17 34.11, 34.94 34.5, 28.73 34.29 C22.51 34.08, 14.37 32.66, 9.64 30.48 C4.91 28.3, 1.18 24.81, 0.33 21.22 C-0.53 17.63, 1.62 12.3, 4.52 8.96 C7.43 5.62, 15.19 2.58, 17.77 1.17 C20.34 -0.25, 19.66 0.14, 19.96 0.49" stroke="#a61e4d" stroke-width="1" fill="none"></path></g><g transform="translate(137.346394497881 938.8340132729205) rotate(0 24 12)"><text x="24" y="17" font-family="Virgil, Segoe UI Emoji" font-size="20px" fill="#a61e4d" text-anchor="middle" style="white-space: pre;" direction="ltr">LC</text></g><g stroke-linecap="round" transform="translate(653.5196756920676 1037.6962268052853) rotate(0 29 17.86527796055725)"><path d="M41.09 2.16 C46.65 3.44, 52.56 6.17, 55.07 9.5 C57.58 12.82, 57.86 18.39, 56.17 22.12 C54.48 25.86, 49.93 29.74, 44.95 31.89 C39.97 34.03, 32.36 35.13, 26.31 34.98 C20.26 34.83, 12.97 33.59, 8.64 31 C4.31 28.42, 0.85 23.38, 0.31 19.47 C-0.24 15.56, 1.69 10.56, 5.36 7.57 C9.03 4.58, 15.48 2.3, 22.34 1.53 C29.19 0.76, 41.82 1.99, 46.49 2.96 C51.16 3.92, 50.72 7.1, 50.36 7.31 M31.71 -0.34 C37.37 -0.38, 44.41 1.46, 48.83 4.09 C53.26 6.73, 57.84 11.67, 58.26 15.48 C58.69 19.29, 55.2 23.73, 51.38 26.96 C47.56 30.2, 41.11 33.57, 35.35 34.9 C29.59 36.24, 22.27 36.67, 16.8 34.96 C11.33 33.25, 5.17 28.04, 2.53 24.62 C-0.11 21.19, -0.51 18.01, 0.94 14.43 C2.4 10.86, 6.1 5.31, 11.25 3.16 C16.4 1.01, 28.55 2.18, 31.82 1.54 C35.09 0.91, 30.83 -0.49, 30.86 -0.64" stroke="#a61e4d" stroke-width="1" fill="none"></path></g><g transform="translate(658.5196756920676 1043.5615047658425) rotate(0 24 12)"><text x="24" y="17" font-family="Virgil, Segoe UI Emoji" font-size="20px" fill="#a61e4d" text-anchor="middle" style="white-space: pre;" direction="ltr">LC</text></g><g stroke-linecap="round" transform="translate(930.7395061145078 1131.3349250813092) rotate(0 29 17.86527796055725)"><path d="M25.8 -0.62 C31.67 -1.1, 39.69 0.62, 44.76 2.92 C49.84 5.21, 54.38 9.41, 56.24 13.17 C58.1 16.92, 58.35 21.94, 55.91 25.43 C53.46 28.91, 47.27 32.33, 41.58 34.1 C35.88 35.87, 27.61 37.05, 21.74 36.05 C15.87 35.05, 10.08 31.44, 6.35 28.12 C2.62 24.79, -1.08 19.97, -0.65 16.08 C-0.21 12.19, 3.76 7.44, 8.95 4.79 C14.14 2.15, 25.84 0.91, 30.52 0.23 C35.2 -0.46, 36.9 0.46, 37.04 0.68 M22.48 -1.08 C28.19 -2.3, 36.21 -1.15, 41.76 0.91 C47.31 2.97, 53.19 7.56, 55.79 11.29 C58.39 15.02, 59.46 19.68, 57.37 23.31 C55.28 26.95, 48.53 31.22, 43.27 33.09 C38.02 34.95, 31.84 35, 25.82 34.5 C19.8 34, 11.21 32.87, 7.16 30.09 C3.1 27.31, 1.81 21.57, 1.49 17.81 C1.17 14.06, 1.84 10.71, 5.25 7.56 C8.67 4.42, 18.83 0.03, 22 -1.07 C25.17 -2.16, 23.75 0.27, 24.27 0.98" stroke="#a61e4d" stroke-width="1" fill="none"></path></g><g transform="translate(935.7395061145078 1137.2002030418664) rotate(0 24 12)"><text x="24" y="17" font-family="Virgil, Segoe UI Emoji" font-size="20px" fill="#a61e4d" text-anchor="middle" style="white-space: pre;" direction="ltr">LC</text></g><g stroke-linecap="round" transform="translate(453.9213977879109 1160.90504032637) rotate(0 29 17.86527796055725)"><path d="M20.53 1.29 C26.13 0.11, 34.69 0.03, 40.42 1.42 C46.15 2.81, 51.97 6.07, 54.92 9.62 C57.88 13.17, 59.58 19.11, 58.16 22.73 C56.74 26.35, 51.55 29.08, 46.38 31.36 C41.22 33.64, 33.44 36.61, 27.17 36.4 C20.89 36.19, 13.18 32.71, 8.72 30.1 C4.26 27.49, 1.13 24.36, 0.4 20.74 C-0.33 17.12, 0.77 11.82, 4.34 8.39 C7.91 4.95, 18.68 1.36, 21.82 0.11 C24.96 -1.13, 23.09 0.7, 23.17 0.9 M18.61 2.05 C24.17 0.43, 32.38 -1.17, 38.25 0.12 C44.13 1.42, 50.81 6.41, 53.87 9.82 C56.92 13.23, 57.52 16.74, 56.61 20.58 C55.69 24.42, 52.99 30.5, 48.38 32.85 C43.78 35.2, 35.09 35.06, 28.95 34.67 C22.81 34.27, 16.51 32.58, 11.54 30.49 C6.57 28.41, 0.37 25.5, -0.9 22.16 C-2.17 18.83, 0.49 14.19, 3.94 10.48 C7.38 6.77, 17.49 1.33, 19.75 -0.09 C22 -1.51, 17.47 1.63, 17.46 1.96" stroke="#a61e4d" stroke-width="1" fill="none"></path></g><g transform="translate(458.9213977879109 1166.7703182869272) rotate(0 24 12)"><text x="24" y="17" font-family="Virgil, Segoe UI Emoji" font-size="20px" fill="#a61e4d" text-anchor="middle" style="white-space: pre;" direction="ltr">LC</text></g><g stroke-linecap="round" transform="translate(465.0101910048086 939.1291759884178) rotate(0 29 17.86527796055725)"><path d="M31.73 0.96 C37.79 1.04, 46.37 2.68, 50.61 5.19 C54.86 7.71, 56.74 12.3, 57.18 16.05 C57.63 19.79, 56.92 24.45, 53.28 27.67 C49.65 30.88, 41.39 34.33, 35.36 35.33 C29.34 36.34, 22.55 35.43, 17.12 33.7 C11.7 31.98, 5.54 28.55, 2.8 24.99 C0.05 21.43, -1.01 16.08, 0.66 12.35 C2.34 8.62, 6.87 4.68, 12.85 2.63 C18.82 0.58, 31.71 0.1, 36.52 0.05 C41.33 0, 41.69 1.83, 41.7 2.34 M27.86 -0.97 C33.85 -1.42, 40.62 1.41, 45.74 3.72 C50.86 6.03, 57.17 9.11, 58.56 12.89 C59.96 16.67, 57.24 23.09, 54.11 26.39 C50.98 29.69, 45.1 31.21, 39.78 32.7 C34.45 34.2, 27.72 35.96, 22.16 35.35 C16.6 34.75, 10.28 32.51, 6.4 29.07 C2.52 25.64, -1.58 18.74, -1.13 14.75 C-0.67 10.76, 4.64 7.42, 9.13 5.15 C13.61 2.87, 23 2.05, 25.79 1.09 C28.57 0.13, 25.66 -0.51, 25.82 -0.61" stroke="#a61e4d" stroke-width="1" fill="none"></path></g><g transform="translate(470.0101910048086 944.9944539489751) rotate(0 24 12)"><text x="24" y="17" font-family="Virgil, Segoe UI Emoji" font-size="20px" fill="#a61e4d" text-anchor="middle" style="white-space: pre;" direction="ltr">LC</text></g><g stroke-linecap="round" transform="translate(222.28882836827276 1121.4782199996228) rotate(0 29 17.86527796055725)"><path d="M23.8 0.53 C29.78 -0.29, 38.85 0.21, 44.35 2.32 C49.85 4.42, 54.82 9.36, 56.79 13.18 C58.75 16.99, 58.61 21.78, 56.14 25.2 C53.68 28.63, 47.52 31.96, 42.01 33.75 C36.5 35.54, 29.09 36.64, 23.09 35.95 C17.08 35.25, 9.9 32.69, 5.97 29.57 C2.03 26.45, -0.64 21.19, -0.53 17.25 C-0.42 13.3, 1.98 8.8, 6.63 5.93 C11.28 3.05, 23.13 0.93, 27.36 0 C31.58 -0.93, 31.74 0.06, 31.99 0.35 M41.31 1.2 C46.75 2.87, 52.97 7.42, 55.28 11.14 C57.59 14.87, 56.88 19.92, 55.17 23.53 C53.46 27.14, 49.77 30.78, 45.01 32.81 C40.24 34.84, 32.9 35.96, 26.58 35.73 C20.25 35.49, 11.39 34.29, 7.04 31.4 C2.69 28.51, 0.43 22.55, 0.46 18.39 C0.49 14.23, 3.28 9.26, 7.22 6.44 C11.17 3.62, 18.5 2.38, 24.14 1.48 C29.77 0.59, 37.96 1.04, 41.02 1.1 C44.08 1.15, 42.3 1.43, 42.49 1.81" stroke="#a61e4d" stroke-width="1" fill="none"></path></g><g transform="translate(227.28882836827276 1127.34349796018) rotate(0 24 12)"><text x="24" y="17" font-family="Virgil, Segoe UI Emoji" font-size="20px" fill="#a61e4d" text-anchor="middle" style="white-space: pre;" direction="ltr">LC</text></g><g stroke-linecap="round" transform="translate(816.1553095398997 946.521704799683) rotate(0 29 17.86527796055725)"><path d="M32.77 0.25 C38.87 0.18, 46.26 1.84, 50.48 4.53 C54.7 7.21, 57.64 12.45, 58.09 16.35 C58.54 20.25, 56.72 24.87, 53.18 27.91 C49.63 30.96, 42.97 33.72, 36.83 34.63 C30.69 35.53, 22.07 35.02, 16.35 33.33 C10.63 31.64, 5.06 27.78, 2.51 24.48 C-0.04 21.18, -0.62 17, 1.05 13.55 C2.72 10.09, 6.87 5.78, 12.51 3.75 C18.16 1.71, 30.75 1.88, 34.9 1.34 C39.05 0.81, 37.6 0.48, 37.39 0.52 M24.13 0.75 C29.84 0.37, 37.91 2.05, 43.28 3.78 C48.66 5.52, 53.96 7.73, 56.38 11.16 C58.79 14.59, 59.94 20.47, 57.77 24.36 C55.6 28.25, 49.07 32.43, 43.36 34.51 C37.65 36.58, 29.44 37.92, 23.53 36.83 C17.62 35.74, 11.99 31.07, 7.91 27.97 C3.83 24.88, -0.65 21.65, -0.94 18.24 C-1.22 14.84, 2.09 10.48, 6.19 7.54 C10.29 4.6, 20.6 1.69, 23.64 0.61 C26.67 -0.47, 24.3 0.7, 24.39 1.06" stroke="#a61e4d" stroke-width="1" fill="none"></path></g><g transform="translate(821.1553095398997 952.3869827602402) rotate(0 24 12)"><text x="24" y="17" font-family="Virgil, Segoe UI Emoji" font-size="20px" fill="#a61e4d" text-anchor="middle" style="white-space: pre;" direction="ltr">LC</text></g><g stroke-linecap="round" transform="translate(1008.3610586327914 1004.4298471545924) rotate(0 29 17.86527796055725)"><path d="M39.99 1.13 C45.55 2.28, 51.49 5.93, 54.25 9.43 C57 12.93, 57.65 18.45, 56.54 22.13 C55.42 25.8, 52.28 29.15, 47.55 31.48 C42.82 33.81, 34.28 36.01, 28.16 36.1 C22.03 36.2, 15.49 34.47, 10.82 32.07 C6.15 29.66, 1.21 25.46, 0.16 21.66 C-0.88 17.85, 1.47 12.72, 4.56 9.24 C7.64 5.75, 12.09 1.77, 18.67 0.75 C25.26 -0.26, 39.3 2.69, 44.06 3.16 C48.82 3.64, 47.47 3.51, 47.23 3.62 M37.38 0.18 C42.78 0.69, 48.42 3.56, 51.95 6.82 C55.48 10.09, 58.96 15.8, 58.58 19.79 C58.19 23.78, 54.28 28.23, 49.62 30.76 C44.95 33.28, 36.85 34.57, 30.61 34.96 C24.37 35.34, 17.06 35.34, 12.19 33.07 C7.33 30.81, 2.9 24.97, 1.43 21.36 C-0.04 17.76, 0.81 14.66, 3.38 11.44 C5.95 8.22, 11.16 3.97, 16.87 2.06 C22.59 0.14, 34.25 0.25, 37.68 -0.05 C41.11 -0.36, 37.62 -0.12, 37.45 0.21" stroke="#a61e4d" stroke-width="1" fill="none"></path></g><g transform="translate(1013.3610586327914 1010.2951251151496) rotate(0 24 12)"><text x="24" y="17" font-family="Virgil, Segoe UI Emoji" font-size="20px" fill="#a61e4d" text-anchor="middle" style="white-space: pre;" direction="ltr">LC</text></g><g stroke-linecap="round"><g transform="translate(190.91650974294143 953.2981895433426) rotate(0 137.444356908077 1.0259689455198213)"><path d="M0.03 0.98 C46.15 1.31, 230.22 1.97, 276.31 1.94 M-1.42 0.45 C44.61 0.43, 229.28 -0.06, 275.52 0.18" stroke="#a61e4d" stroke-width="1" fill="none"></path></g></g><g stroke-linecap="round"><g transform="translate(177.36354025562215 968.0832471658726) rotate(0 33.852801753977644 77.12963562902826)"><path d="M-0.91 0.49 C10.49 26.19, 57.13 128.86, 68.61 154.56 M0.82 -0.3 C12.1 25.01, 57.03 127.22, 68.11 152.72" stroke="#a61e4d" stroke-width="1" fill="none"></path></g></g><g stroke-linecap="round"><g transform="translate(268.5380622612246 1123.326352202439) rotate(0 116.45421256018781 -74.06232261797692)"><path d="M0.73 1.03 C39.75 -23.43, 194.38 -122.37, 233.25 -147.32 M-0.34 0.53 C38.63 -24.24, 193.49 -124.45, 232.5 -149.16" stroke="#a61e4d" stroke-width="1" fill="none"></path></g></g><g stroke-linecap="round"><g transform="translate(519.8840418442368 966.8511590306618) rotate(0 73.04099448040404 36.61372628633069)"><path d="M-1.03 -0.25 C23.1 11.92, 120.28 60.99, 144.74 73.39 M0.64 -1.42 C25.16 10.87, 123.03 61.81, 147.11 74.65" stroke="#a61e4d" stroke-width="1" fill="none"></path></g></g><g stroke-linecap="round"><g transform="translate(511.25942489776094 1177.538230151716) rotate(0 213.08088133634408 -12.309556102739123)"><path d="M-1.2 -0.67 C69.93 -4.97, 355.87 -21.84, 427.36 -26.21 M0.37 1.59 C71.28 -2.49, 355.2 -20.23, 426.32 -24.84" stroke="#a61e4d" stroke-width="1" fill="none"></path></g></g><g stroke-linecap="round"><g transform="translate(831.6023400525803 977.9399522475594) rotate(0 -65.60894849245221 33.2811075117545)"><path d="M-1.15 -0.88 C-23.06 10.56, -109.38 56.11, -131.11 67.44 M0.45 1.27 C-21.59 12.49, -109.58 55.16, -131.67 65.8" stroke="#a61e4d" stroke-width="1" fill="none"></path></g></g><g stroke-linecap="round"><g transform="translate(873.4933366497492 968.0832471658726) rotate(0 70.1391119715878 25.59481169519114)"><path d="M-0.8 -0.1 C22.84 8.58, 117.69 43.92, 141.08 52.39 M0.98 -1.2 C24.58 7.11, 116.97 41.83, 140.46 50.61" stroke="#a61e4d" stroke-width="1" fill="none"></path></g></g><g stroke-linecap="round"><g transform="translate(1028.7364416863154 1043.2406234137343) rotate(0 -28.63758808515604 46.57469749006617)"><path d="M1.12 -0.74 C-8.45 14.77, -47.88 77, -57.61 92.79 M0.25 1.49 C-9.44 17.15, -48.75 78.82, -58.4 93.89" stroke="#a61e4d" stroke-width="1" fill="none"></path></g></g><g stroke-linecap="round"><g transform="translate(859.9403671624298 984.1003929236136) rotate(0 46.58685217491063 73.82454769145977)"><path d="M0.36 -0.59 C15.6 24.21, 76.42 123.33, 91.73 148.24 M-0.91 1.72 C14.7 26.2, 78.71 122.09, 94.08 146.32" stroke="#a61e4d" stroke-width="1" fill="none"></path></g></g><g stroke-linecap="round"><g transform="translate(1054.6102925257426 265.79301009569156) rotate(0 33.21916917436579 369.7173815122061)"><path d="M0.2 1.05 C13.04 60.57, 80.52 234.96, 78.17 357.73 C75.83 480.51, 1.62 674.43, -13.86 737.72 M-1.16 0.56 C11.97 60.2, 82.69 236.12, 80.53 359.17 C78.37 482.23, 1.68 675.69, -14.14 738.88" stroke="#a61e4d" stroke-width="1" fill="none"></path></g></g><g stroke-linecap="round"><g transform="translate(77.56440130354244 167.22595927882406) rotate(0 4.59862393499327 383.63265245620687)"><path d="M0.24 -0.67 C-10.73 68.47, -77.2 287, -64.86 414.87 C-52.51 542.73, 50.95 707.75, 74.31 766.53 M-1.09 1.59 C-12.32 70.4, -78.87 285.48, -65.89 413.21 C-52.92 540.93, 53.17 709.2, 76.76 767.94" stroke="#a61e4d" stroke-width="1" fill="none"></path></g></g><g stroke-linecap="round"><g transform="translate(185.98815720209686 276.88180331258917) rotate(0 -51.368618128365995 329.72831654963863)"><path d="M-1.02 -0.16 C-17.92 48.98, -99.1 184.15, -102.49 294.06 C-105.89 403.98, -34.95 598.4, -21.39 659.34 M0.65 -1.28 C-16.28 47.54, -99.4 181.71, -103.24 292.05 C-107.08 402.39, -36.1 599.85, -22.38 660.74" stroke="#a61e4d" stroke-width="1" fill="none"></path></g></g><g transform="translate(421.9899808188742 10) rotate(0 175 18)"><text x="0" y="25" font-family="Virgil, Segoe UI Emoji" font-size="28px" fill="#a61e4d" text-anchor="start" style="white-space: pre;" direction="ltr">Light Client P2P Network</text></g><g transform="translate(1219.7101026439946 487.19349138011995) rotate(0 81 13)"><text x="0" y="18" font-family="Virgil, Segoe UI Emoji" font-size="20px" fill="#364fc7" text-anchor="start" style="white-space: pre;" direction="ltr">Data Submission</text></g><g stroke-linecap="round"><g transform="translate(1212.3175738327297 499.8897557857525) rotate(0 -147.506904663412 -0.19608010677157495)"><path d="M-1.05 -0.95 C-50.39 -1.04, -245.84 0.06, -295.02 -0.06 M0.59 1.17 C-48.93 0.73, -245.99 -1.28, -295.61 -1.56" stroke="#364fc7" stroke-width="1" fill="none"></path></g><g transform="translate(1212.3175738327297 499.8897557857525) rotate(0 -147.506904663412 -0.19608010677157495)"><path d="M-268.91 -10.45 C-276.19 -8.69, -289.66 -3.05, -294.11 -1.54 M-266.75 -11.94 C-275.64 -8.52, -283.31 -5.37, -295.23 -1.71" stroke="#364fc7" stroke-width="1" fill="none"></path></g><g transform="translate(1212.3175738327297 499.8897557857525) rotate(0 -147.506904663412 -0.19608010677157495)"><path d="M-269.08 10.07 C-276.38 3.95, -289.78 1.71, -294.11 -1.54 M-266.92 8.58 C-275.6 6.3, -283.22 3.75, -295.23 -1.71" stroke="#364fc7" stroke-width="1" fill="none"></path></g></g><g transform="translate(1206.1571331566756 760.7170573969274) rotate(0 121 25.5)"><text x="121" y="18.5" font-family="Virgil, Segoe UI Emoji" font-size="20px" fill="#364fc7" text-anchor="middle" style="white-space: pre;" direction="ltr">Data Root to Ethereum</text><text x="121" y="44" font-family="Virgil, Segoe UI Emoji" font-size="20px" fill="#364fc7" text-anchor="middle" style="white-space: pre;" direction="ltr">(optional)</text></g><g stroke-linecap="round"><g transform="translate(909.2238925708623 775.6792242443178) rotate(0 142.70872839878848 3.132330568086445)"><path d="M0.89 -0.35 C48.6 1.08, 238.11 6.49, 285.52 7.84 M-0.1 -1.58 C47.49 -0.47, 237 4.07, 284.4 5.85" stroke="#364fc7" stroke-width="1" fill="none"></path></g><g transform="translate(909.2238925708623 775.6792242443178) rotate(0 142.70872839878848 3.132330568086445)"><path d="M255.34 14.73 C263.18 11.95, 269.81 12.35, 285.06 6.65 M256.06 14.41 C261.94 14.53, 267.76 10.88, 283.9 6.33" stroke="#364fc7" stroke-width="1" fill="none"></path></g><g transform="translate(909.2238925708623 775.6792242443178) rotate(0 142.70872839878848 3.132330568086445)"><path d="M255.95 -5.78 C263.52 -3.68, 270.01 1.6, 285.06 6.65 M256.67 -6.1 C262.53 -1.66, 268.22 -0.99, 283.9 6.33" stroke="#364fc7" stroke-width="1" fill="none"></path></g></g><g transform="translate(513.1645028244764 1105.3979996615963) rotate(0 107.5 13)"><text x="0" y="18" font-family="Virgil, Segoe UI Emoji" font-size="20px" fill="#a61e4d" text-anchor="start" style="white-space: pre;" direction="ltr">High Data Availability</text></g><g transform="translate(913.2379739004098 612.5627455772587) rotate(0 89 25.5)"><text x="0" y="18.5" font-family="Virgil, Segoe UI Emoji" font-size="20px" fill="#364fc7" text-anchor="start" style="white-space: pre;" direction="ltr">Balances, Staking,</text><text x="0" y="44" font-family="Virgil, Segoe UI Emoji" font-size="20px" fill="#364fc7" text-anchor="start" style="white-space: pre;" direction="ltr">Governance, ...</text></g><g stroke-linecap="round"><g transform="translate(1002.5835450178308 603.3851591434634) rotate(0 -46.0983957692373 -22.674254342175402)"><path d="M-0.14 0.04 C-15.19 -7.16, -75.99 -36.1, -91.28 -43.55 M-1.67 -0.99 C-16.76 -8.52, -76.87 -38.28, -92.06 -45.39" stroke="#364fc7" stroke-width="1" fill="none"></path></g><g transform="translate(1002.5835450178308 603.3851591434634) rotate(0 -46.0983957692373 -22.674254342175402)"><path d="M-62.15 -41.81 C-67.77 -43.55, -76.1 -42.49, -94.03 -44.13 M-62.4 -41.63 C-70.12 -42.64, -78.26 -43.2, -92.78 -45.32" stroke="#364fc7" stroke-width="1" fill="none"></path></g><g transform="translate(1002.5835450178308 603.3851591434634) rotate(0 -46.0983957692373 -22.674254342175402)"><path d="M-71.08 -23.34 C-74.71 -29.08, -81.09 -32.04, -94.03 -44.13 M-71.33 -23.15 C-76.83 -29.07, -82.61 -34.52, -92.78 -45.32" stroke="#364fc7" stroke-width="1" fill="none"></path></g></g><g stroke-linecap="round"><g transform="translate(1006.1923588082025 677.310447256114) rotate(0 -49.67299652537497 17.46148277339617)"><path d="M1.14 0.49 C-15.44 5.94, -82.87 28.31, -99.48 33.84 M0.28 -0.29 C-16.47 5.84, -83.97 29.37, -100.49 35.22" stroke="#364fc7" stroke-width="1" fill="none"></path></g><g transform="translate(1006.1923588082025 677.310447256114) rotate(0 -49.67299652537497 17.46148277339617)"><path d="M-76.46 16.01 C-84.63 23.56, -91.88 26.79, -101.52 33.6 M-77.67 16.6 C-83.8 20.08, -89.01 25.41, -101.38 35.78" stroke="#364fc7" stroke-width="1" fill="none"></path></g><g transform="translate(1006.1923588082025 677.310447256114) rotate(0 -49.67299652537497 17.46148277339617)"><path d="M-69.67 35.37 C-80.07 37.14, -89.37 34.53, -101.52 33.6 M-70.87 35.96 C-78.53 34.91, -85.35 35.66, -101.38 35.78" stroke="#364fc7" stroke-width="1" fill="none"></path></g></g></svg>